<mxfile host="app.diagrams.net" agent="Mozilla/5.0 (Windows NT 10.0; Win64; x64) AppleWebKit/537.36 (KHTML, like Gecko) Chrome/131.0.0.0 Safari/537.36" version="25.0.3">
  <diagram name="Страница — 1" id="hiSszDSdM4KmS5g5JCWV">
    <mxGraphModel dx="1434" dy="780" grid="0" gridSize="10" guides="1" tooltips="1" connect="1" arrows="1" fold="1" page="1" pageScale="1" pageWidth="827" pageHeight="1169" math="0" shadow="0">
      <root>
        <mxCell id="0" />
        <mxCell id="1" parent="0" />
        <mxCell id="JpiygvqlaEMgaRIOcOH8-22" style="edgeStyle=orthogonalEdgeStyle;rounded=0;orthogonalLoop=1;jettySize=auto;html=1;entryX=0.5;entryY=0;entryDx=0;entryDy=0;dashed=1;strokeColor=#B266FF;dashPattern=1 1;" parent="1" source="JpiygvqlaEMgaRIOcOH8-1" target="JpiygvqlaEMgaRIOcOH8-18" edge="1">
          <mxGeometry relative="1" as="geometry" />
        </mxCell>
        <mxCell id="JpiygvqlaEMgaRIOcOH8-26" value="" style="edgeStyle=orthogonalEdgeStyle;rounded=0;orthogonalLoop=1;jettySize=auto;html=1;dashed=1;strokeColor=#FF9933;" parent="1" source="JpiygvqlaEMgaRIOcOH8-1" target="JpiygvqlaEMgaRIOcOH8-19" edge="1">
          <mxGeometry relative="1" as="geometry" />
        </mxCell>
        <mxCell id="JpiygvqlaEMgaRIOcOH8-1" value="&lt;div&gt;Балансировщик&lt;/div&gt;Nginx" style="rounded=1;whiteSpace=wrap;html=1;fillColor=#dae8fc;strokeColor=#6c8ebf;" parent="1" vertex="1">
          <mxGeometry x="184" y="325" width="120" height="60" as="geometry" />
        </mxCell>
        <mxCell id="JpiygvqlaEMgaRIOcOH8-31" style="edgeStyle=orthogonalEdgeStyle;rounded=0;orthogonalLoop=1;jettySize=auto;html=1;entryX=1;entryY=0.25;entryDx=0;entryDy=0;dashed=1;curved=1;strokeColor=#B266FF;dashPattern=1 1;" parent="1" source="JpiygvqlaEMgaRIOcOH8-2" target="JpiygvqlaEMgaRIOcOH8-18" edge="1">
          <mxGeometry relative="1" as="geometry">
            <Array as="points">
              <mxPoint x="339" y="244" />
              <mxPoint x="339" y="451" />
            </Array>
          </mxGeometry>
        </mxCell>
        <mxCell id="JpiygvqlaEMgaRIOcOH8-34" style="edgeStyle=orthogonalEdgeStyle;rounded=0;orthogonalLoop=1;jettySize=auto;html=1;entryX=1;entryY=0.25;entryDx=0;entryDy=0;curved=1;dashed=1;exitX=0;exitY=0.25;exitDx=0;exitDy=0;strokeColor=#FF9933;" parent="1" source="JpiygvqlaEMgaRIOcOH8-2" target="JpiygvqlaEMgaRIOcOH8-19" edge="1">
          <mxGeometry relative="1" as="geometry" />
        </mxCell>
        <mxCell id="JpiygvqlaEMgaRIOcOH8-2" value="Сервер с сервисом&lt;div&gt;Frontend&lt;/div&gt;" style="rounded=1;whiteSpace=wrap;html=1;fillColor=#dae8fc;strokeColor=#6c8ebf;" parent="1" vertex="1">
          <mxGeometry x="399" y="214" width="120" height="60" as="geometry" />
        </mxCell>
        <mxCell id="JpiygvqlaEMgaRIOcOH8-29" style="edgeStyle=orthogonalEdgeStyle;rounded=0;orthogonalLoop=1;jettySize=auto;html=1;entryX=1;entryY=0.5;entryDx=0;entryDy=0;dashed=1;curved=1;strokeColor=#B266FF;exitX=0;exitY=0.75;exitDx=0;exitDy=0;dashPattern=1 1;" parent="1" source="JpiygvqlaEMgaRIOcOH8-3" target="JpiygvqlaEMgaRIOcOH8-18" edge="1">
          <mxGeometry relative="1" as="geometry" />
        </mxCell>
        <mxCell id="JpiygvqlaEMgaRIOcOH8-35" style="edgeStyle=orthogonalEdgeStyle;rounded=0;orthogonalLoop=1;jettySize=auto;html=1;exitX=0;exitY=0.25;exitDx=0;exitDy=0;entryX=1;entryY=0.5;entryDx=0;entryDy=0;curved=1;dashed=1;strokeColor=#FF9933;" parent="1" source="JpiygvqlaEMgaRIOcOH8-3" target="JpiygvqlaEMgaRIOcOH8-19" edge="1">
          <mxGeometry relative="1" as="geometry" />
        </mxCell>
        <mxCell id="JpiygvqlaEMgaRIOcOH8-3" value="Сервер с сервисом&lt;br&gt;&lt;div&gt;Backend1&lt;/div&gt;" style="rounded=1;whiteSpace=wrap;html=1;fillColor=#dae8fc;strokeColor=#6c8ebf;" parent="1" vertex="1">
          <mxGeometry x="399" y="325" width="120" height="60" as="geometry" />
        </mxCell>
        <mxCell id="JpiygvqlaEMgaRIOcOH8-30" style="edgeStyle=orthogonalEdgeStyle;rounded=0;orthogonalLoop=1;jettySize=auto;html=1;entryX=1;entryY=0.75;entryDx=0;entryDy=0;dashed=1;curved=1;strokeColor=#B266FF;exitX=0;exitY=0.75;exitDx=0;exitDy=0;dashPattern=1 1;" parent="1" source="JpiygvqlaEMgaRIOcOH8-4" target="JpiygvqlaEMgaRIOcOH8-18" edge="1">
          <mxGeometry relative="1" as="geometry" />
        </mxCell>
        <mxCell id="JpiygvqlaEMgaRIOcOH8-4" value="Сервер с сервисом&lt;br&gt;&lt;div&gt;Backend2&lt;/div&gt;" style="rounded=1;whiteSpace=wrap;html=1;fillColor=#dae8fc;strokeColor=#6c8ebf;" parent="1" vertex="1">
          <mxGeometry x="399" y="436" width="120" height="60" as="geometry" />
        </mxCell>
        <mxCell id="JpiygvqlaEMgaRIOcOH8-12" style="edgeStyle=orthogonalEdgeStyle;rounded=0;orthogonalLoop=1;jettySize=auto;html=1;exitX=0.5;exitY=1;exitDx=0;exitDy=0;entryX=0.5;entryY=0;entryDx=0;entryDy=0;" parent="1" source="JpiygvqlaEMgaRIOcOH8-5" target="JpiygvqlaEMgaRIOcOH8-6" edge="1">
          <mxGeometry relative="1" as="geometry" />
        </mxCell>
        <mxCell id="JpiygvqlaEMgaRIOcOH8-32" style="edgeStyle=orthogonalEdgeStyle;rounded=0;orthogonalLoop=1;jettySize=auto;html=1;entryX=0.25;entryY=0;entryDx=0;entryDy=0;curved=1;exitX=0.5;exitY=0;exitDx=0;exitDy=0;dashed=1;strokeColor=#FF9933;" parent="1" source="JpiygvqlaEMgaRIOcOH8-5" target="JpiygvqlaEMgaRIOcOH8-19" edge="1">
          <mxGeometry relative="1" as="geometry">
            <Array as="points">
              <mxPoint x="724" y="163" />
              <mxPoint x="214" y="163" />
            </Array>
          </mxGeometry>
        </mxCell>
        <mxCell id="JpiygvqlaEMgaRIOcOH8-33" style="edgeStyle=orthogonalEdgeStyle;rounded=0;orthogonalLoop=1;jettySize=auto;html=1;entryX=0.75;entryY=1;entryDx=0;entryDy=0;curved=1;dashed=1;strokeColor=#B266FF;dashPattern=1 1;" parent="1" source="JpiygvqlaEMgaRIOcOH8-5" target="JpiygvqlaEMgaRIOcOH8-18" edge="1">
          <mxGeometry relative="1" as="geometry">
            <Array as="points">
              <mxPoint x="614" y="244" />
              <mxPoint x="614" y="529" />
              <mxPoint x="274" y="529" />
            </Array>
          </mxGeometry>
        </mxCell>
        <mxCell id="JpiygvqlaEMgaRIOcOH8-5" value="DB&lt;div&gt;Postgres&lt;/div&gt;" style="rounded=1;whiteSpace=wrap;html=1;fillColor=#dae8fc;strokeColor=#6c8ebf;" parent="1" vertex="1">
          <mxGeometry x="664" y="214" width="120" height="60" as="geometry" />
        </mxCell>
        <mxCell id="JpiygvqlaEMgaRIOcOH8-15" value="" style="edgeStyle=orthogonalEdgeStyle;rounded=0;orthogonalLoop=1;jettySize=auto;html=1;entryX=0.75;entryY=1;entryDx=0;entryDy=0;curved=1;exitX=0.25;exitY=1;exitDx=0;exitDy=0;" parent="1" source="JpiygvqlaEMgaRIOcOH8-6" target="JpiygvqlaEMgaRIOcOH8-6" edge="1">
          <mxGeometry relative="1" as="geometry">
            <mxPoint x="724" y="436" as="targetPoint" />
          </mxGeometry>
        </mxCell>
        <mxCell id="JpiygvqlaEMgaRIOcOH8-23" value="&lt;span style=&quot;font-size: 12px; text-wrap-mode: wrap; background-color: rgb(251, 251, 251);&quot;&gt;Backup&lt;/span&gt;" style="edgeLabel;html=1;align=center;verticalAlign=middle;resizable=0;points=[];" parent="JpiygvqlaEMgaRIOcOH8-15" vertex="1" connectable="0">
          <mxGeometry x="-0.0571" y="3" relative="1" as="geometry">
            <mxPoint y="12" as="offset" />
          </mxGeometry>
        </mxCell>
        <mxCell id="JpiygvqlaEMgaRIOcOH8-6" value="DB&lt;div&gt;Postgres&lt;/div&gt;&lt;div&gt;Replica&lt;/div&gt;" style="rounded=1;whiteSpace=wrap;html=1;" parent="1" vertex="1">
          <mxGeometry x="664" y="325" width="120" height="60" as="geometry" />
        </mxCell>
        <mxCell id="JpiygvqlaEMgaRIOcOH8-7" value="" style="endArrow=classic;startArrow=classic;html=1;rounded=0;entryX=0;entryY=0.75;entryDx=0;entryDy=0;exitX=1;exitY=0.25;exitDx=0;exitDy=0;" parent="1" source="JpiygvqlaEMgaRIOcOH8-1" target="JpiygvqlaEMgaRIOcOH8-2" edge="1">
          <mxGeometry width="50" height="50" relative="1" as="geometry">
            <mxPoint x="438" y="111" as="sourcePoint" />
            <mxPoint x="488" y="61" as="targetPoint" />
          </mxGeometry>
        </mxCell>
        <mxCell id="JpiygvqlaEMgaRIOcOH8-8" value="" style="endArrow=classic;startArrow=classic;html=1;rounded=0;entryX=0;entryY=0.25;entryDx=0;entryDy=0;exitX=1;exitY=0.5;exitDx=0;exitDy=0;" parent="1" source="JpiygvqlaEMgaRIOcOH8-3" target="JpiygvqlaEMgaRIOcOH8-5" edge="1">
          <mxGeometry width="50" height="50" relative="1" as="geometry">
            <mxPoint x="584" y="167" as="sourcePoint" />
            <mxPoint x="634" y="117" as="targetPoint" />
          </mxGeometry>
        </mxCell>
        <mxCell id="JpiygvqlaEMgaRIOcOH8-9" value="" style="endArrow=classic;startArrow=classic;html=1;rounded=0;entryX=0;entryY=0.75;entryDx=0;entryDy=0;exitX=1;exitY=0.5;exitDx=0;exitDy=0;" parent="1" source="JpiygvqlaEMgaRIOcOH8-4" target="JpiygvqlaEMgaRIOcOH8-5" edge="1">
          <mxGeometry width="50" height="50" relative="1" as="geometry">
            <mxPoint x="528" y="139" as="sourcePoint" />
            <mxPoint x="578" y="89" as="targetPoint" />
          </mxGeometry>
        </mxCell>
        <mxCell id="JpiygvqlaEMgaRIOcOH8-10" value="" style="endArrow=classic;startArrow=classic;html=1;rounded=0;entryX=0;entryY=0.5;entryDx=0;entryDy=0;exitX=1;exitY=0.5;exitDx=0;exitDy=0;" parent="1" source="JpiygvqlaEMgaRIOcOH8-1" target="JpiygvqlaEMgaRIOcOH8-3" edge="1">
          <mxGeometry width="50" height="50" relative="1" as="geometry">
            <mxPoint x="314" y="365" as="sourcePoint" />
            <mxPoint x="409" y="254" as="targetPoint" />
          </mxGeometry>
        </mxCell>
        <mxCell id="JpiygvqlaEMgaRIOcOH8-11" value="" style="endArrow=classic;startArrow=classic;html=1;rounded=0;entryX=0;entryY=0.25;entryDx=0;entryDy=0;exitX=1;exitY=0.75;exitDx=0;exitDy=0;" parent="1" source="JpiygvqlaEMgaRIOcOH8-1" target="JpiygvqlaEMgaRIOcOH8-4" edge="1">
          <mxGeometry width="50" height="50" relative="1" as="geometry">
            <mxPoint x="314" y="365" as="sourcePoint" />
            <mxPoint x="409" y="365" as="targetPoint" />
          </mxGeometry>
        </mxCell>
        <mxCell id="JpiygvqlaEMgaRIOcOH8-16" value="Пользователь" style="ellipse;whiteSpace=wrap;html=1;aspect=fixed;fillColor=#d5e8d4;strokeColor=#82b366;" parent="1" vertex="1">
          <mxGeometry x="25" y="310.5" width="89" height="89" as="geometry" />
        </mxCell>
        <mxCell id="JpiygvqlaEMgaRIOcOH8-18" value="Сервер логгирования&lt;div&gt;ELK&lt;/div&gt;&lt;div&gt;Filebeat&lt;/div&gt;" style="rounded=1;whiteSpace=wrap;html=1;fillColor=#e1d5e7;strokeColor=#9673a6;" parent="1" vertex="1">
          <mxGeometry x="184" y="436" width="120" height="60" as="geometry" />
        </mxCell>
        <mxCell id="JpiygvqlaEMgaRIOcOH8-19" value="Сервер мониторинга&lt;div&gt;Prometheus+Grafana&lt;/div&gt;" style="rounded=1;whiteSpace=wrap;html=1;fillColor=#fff2cc;strokeColor=#d6b656;" parent="1" vertex="1">
          <mxGeometry x="184" y="214" width="120" height="60" as="geometry" />
        </mxCell>
        <mxCell id="JpiygvqlaEMgaRIOcOH8-24" value="" style="endArrow=classic;startArrow=classic;html=1;rounded=0;entryX=0.25;entryY=1;entryDx=0;entryDy=0;exitX=0.25;exitY=0;exitDx=0;exitDy=0;" parent="1" source="JpiygvqlaEMgaRIOcOH8-18" target="JpiygvqlaEMgaRIOcOH8-1" edge="1">
          <mxGeometry width="50" height="50" relative="1" as="geometry">
            <mxPoint x="314" y="350" as="sourcePoint" />
            <mxPoint x="409" y="254" as="targetPoint" />
          </mxGeometry>
        </mxCell>
        <mxCell id="JpiygvqlaEMgaRIOcOH8-25" value="" style="endArrow=classic;startArrow=classic;html=1;rounded=0;entryX=0.25;entryY=1;entryDx=0;entryDy=0;exitX=0.25;exitY=0;exitDx=0;exitDy=0;" parent="1" source="JpiygvqlaEMgaRIOcOH8-1" target="JpiygvqlaEMgaRIOcOH8-19" edge="1">
          <mxGeometry width="50" height="50" relative="1" as="geometry">
            <mxPoint x="224" y="446" as="sourcePoint" />
            <mxPoint x="224" y="395" as="targetPoint" />
          </mxGeometry>
        </mxCell>
        <mxCell id="JpiygvqlaEMgaRIOcOH8-36" style="edgeStyle=orthogonalEdgeStyle;rounded=0;orthogonalLoop=1;jettySize=auto;html=1;exitX=0;exitY=0.5;exitDx=0;exitDy=0;entryX=1.007;entryY=0.674;entryDx=0;entryDy=0;entryPerimeter=0;curved=1;dashed=1;strokeColor=#FF9933;" parent="1" source="JpiygvqlaEMgaRIOcOH8-4" target="JpiygvqlaEMgaRIOcOH8-19" edge="1">
          <mxGeometry relative="1" as="geometry">
            <Array as="points">
              <mxPoint x="339" y="466" />
              <mxPoint x="339" y="254" />
            </Array>
          </mxGeometry>
        </mxCell>
        <mxCell id="JpiygvqlaEMgaRIOcOH8-37" value="" style="endArrow=classic;startArrow=classic;html=1;rounded=0;entryX=1;entryY=0.5;entryDx=0;entryDy=0;exitX=0;exitY=0.5;exitDx=0;exitDy=0;" parent="1" source="JpiygvqlaEMgaRIOcOH8-1" target="JpiygvqlaEMgaRIOcOH8-16" edge="1">
          <mxGeometry width="50" height="50" relative="1" as="geometry">
            <mxPoint x="224" y="335" as="sourcePoint" />
            <mxPoint x="224" y="284" as="targetPoint" />
          </mxGeometry>
        </mxCell>
        <mxCell id="-ABRjQSA_zUm2fUTC_30-1" style="edgeStyle=orthogonalEdgeStyle;rounded=0;orthogonalLoop=1;jettySize=auto;html=1;entryX=0.5;entryY=0;entryDx=0;entryDy=0;dashed=1;strokeColor=#B266FF;dashPattern=1 1;" edge="1" source="-ABRjQSA_zUm2fUTC_30-3" target="-ABRjQSA_zUm2fUTC_30-25" parent="1">
          <mxGeometry relative="1" as="geometry" />
        </mxCell>
        <mxCell id="-ABRjQSA_zUm2fUTC_30-2" value="" style="edgeStyle=orthogonalEdgeStyle;rounded=0;orthogonalLoop=1;jettySize=auto;html=1;dashed=1;strokeColor=#FF9933;" edge="1" source="-ABRjQSA_zUm2fUTC_30-3" target="-ABRjQSA_zUm2fUTC_30-26" parent="1">
          <mxGeometry relative="1" as="geometry" />
        </mxCell>
        <mxCell id="-ABRjQSA_zUm2fUTC_30-3" value="&lt;div&gt;Балансировщик&lt;/div&gt;Nginx" style="rounded=1;whiteSpace=wrap;html=1;fillColor=#dae8fc;strokeColor=#6c8ebf;" vertex="1" parent="1">
          <mxGeometry x="184" y="759" width="120" height="60" as="geometry" />
        </mxCell>
        <mxCell id="-ABRjQSA_zUm2fUTC_30-4" style="edgeStyle=orthogonalEdgeStyle;rounded=0;orthogonalLoop=1;jettySize=auto;html=1;entryX=1;entryY=0.25;entryDx=0;entryDy=0;dashed=1;curved=1;strokeColor=#B266FF;dashPattern=1 1;" edge="1" source="-ABRjQSA_zUm2fUTC_30-6" target="-ABRjQSA_zUm2fUTC_30-25" parent="1">
          <mxGeometry relative="1" as="geometry">
            <Array as="points">
              <mxPoint x="339" y="678" />
              <mxPoint x="339" y="885" />
            </Array>
          </mxGeometry>
        </mxCell>
        <mxCell id="-ABRjQSA_zUm2fUTC_30-5" style="edgeStyle=orthogonalEdgeStyle;rounded=0;orthogonalLoop=1;jettySize=auto;html=1;entryX=1;entryY=0.25;entryDx=0;entryDy=0;curved=1;dashed=1;exitX=0;exitY=0.25;exitDx=0;exitDy=0;strokeColor=#FF9933;" edge="1" source="-ABRjQSA_zUm2fUTC_30-6" target="-ABRjQSA_zUm2fUTC_30-26" parent="1">
          <mxGeometry relative="1" as="geometry" />
        </mxCell>
        <mxCell id="-ABRjQSA_zUm2fUTC_30-6" value="Сервер с сервисом&lt;div&gt;Frontend&lt;/div&gt;" style="rounded=1;whiteSpace=wrap;html=1;fillColor=#dae8fc;strokeColor=#6c8ebf;" vertex="1" parent="1">
          <mxGeometry x="399" y="648" width="120" height="60" as="geometry" />
        </mxCell>
        <mxCell id="-ABRjQSA_zUm2fUTC_30-7" style="edgeStyle=orthogonalEdgeStyle;rounded=0;orthogonalLoop=1;jettySize=auto;html=1;entryX=1;entryY=0.5;entryDx=0;entryDy=0;dashed=1;curved=1;strokeColor=#B266FF;exitX=0;exitY=0.75;exitDx=0;exitDy=0;dashPattern=1 1;" edge="1" source="-ABRjQSA_zUm2fUTC_30-9" target="-ABRjQSA_zUm2fUTC_30-25" parent="1">
          <mxGeometry relative="1" as="geometry" />
        </mxCell>
        <mxCell id="-ABRjQSA_zUm2fUTC_30-8" style="edgeStyle=orthogonalEdgeStyle;rounded=0;orthogonalLoop=1;jettySize=auto;html=1;exitX=0;exitY=0.25;exitDx=0;exitDy=0;entryX=1;entryY=0.5;entryDx=0;entryDy=0;curved=1;dashed=1;strokeColor=#FF9933;" edge="1" source="-ABRjQSA_zUm2fUTC_30-9" target="-ABRjQSA_zUm2fUTC_30-26" parent="1">
          <mxGeometry relative="1" as="geometry" />
        </mxCell>
        <mxCell id="-ABRjQSA_zUm2fUTC_30-9" value="Сервер с сервисом&lt;br&gt;&lt;div&gt;Backend1&lt;/div&gt;" style="rounded=1;whiteSpace=wrap;html=1;fillColor=#dae8fc;strokeColor=#6c8ebf;" vertex="1" parent="1">
          <mxGeometry x="399" y="759" width="120" height="60" as="geometry" />
        </mxCell>
        <mxCell id="-ABRjQSA_zUm2fUTC_30-10" style="edgeStyle=orthogonalEdgeStyle;rounded=0;orthogonalLoop=1;jettySize=auto;html=1;entryX=1;entryY=0.75;entryDx=0;entryDy=0;dashed=1;curved=1;strokeColor=#FF00FF;exitX=0;exitY=0.75;exitDx=0;exitDy=0;dashPattern=1 1;" edge="1" source="-ABRjQSA_zUm2fUTC_30-11" target="-ABRjQSA_zUm2fUTC_30-25" parent="1">
          <mxGeometry relative="1" as="geometry" />
        </mxCell>
        <mxCell id="-ABRjQSA_zUm2fUTC_30-11" value="Сервер с сервисом&lt;br&gt;&lt;div&gt;Backend2&lt;/div&gt;" style="rounded=1;whiteSpace=wrap;html=1;fillColor=#dae8fc;strokeColor=#6c8ebf;" vertex="1" parent="1">
          <mxGeometry x="399" y="870" width="120" height="60" as="geometry" />
        </mxCell>
        <mxCell id="-ABRjQSA_zUm2fUTC_30-12" style="edgeStyle=orthogonalEdgeStyle;rounded=0;orthogonalLoop=1;jettySize=auto;html=1;exitX=0.5;exitY=1;exitDx=0;exitDy=0;entryX=0.5;entryY=0;entryDx=0;entryDy=0;" edge="1" source="-ABRjQSA_zUm2fUTC_30-15" target="-ABRjQSA_zUm2fUTC_30-18" parent="1">
          <mxGeometry relative="1" as="geometry" />
        </mxCell>
        <mxCell id="-ABRjQSA_zUm2fUTC_30-13" style="edgeStyle=orthogonalEdgeStyle;rounded=0;orthogonalLoop=1;jettySize=auto;html=1;entryX=0.25;entryY=0;entryDx=0;entryDy=0;curved=1;exitX=0.5;exitY=0;exitDx=0;exitDy=0;dashed=1;strokeColor=#FF9933;" edge="1" source="-ABRjQSA_zUm2fUTC_30-15" target="-ABRjQSA_zUm2fUTC_30-26" parent="1">
          <mxGeometry relative="1" as="geometry">
            <Array as="points">
              <mxPoint x="724" y="597" />
              <mxPoint x="214" y="597" />
            </Array>
          </mxGeometry>
        </mxCell>
        <mxCell id="-ABRjQSA_zUm2fUTC_30-14" style="edgeStyle=orthogonalEdgeStyle;rounded=0;orthogonalLoop=1;jettySize=auto;html=1;entryX=0.75;entryY=1;entryDx=0;entryDy=0;curved=1;dashed=1;strokeColor=#B266FF;dashPattern=1 1;" edge="1" source="-ABRjQSA_zUm2fUTC_30-15" target="-ABRjQSA_zUm2fUTC_30-25" parent="1">
          <mxGeometry relative="1" as="geometry">
            <Array as="points">
              <mxPoint x="614" y="678" />
              <mxPoint x="614" y="963" />
              <mxPoint x="274" y="963" />
            </Array>
          </mxGeometry>
        </mxCell>
        <mxCell id="-ABRjQSA_zUm2fUTC_30-15" value="DB&lt;div&gt;Postgres&lt;/div&gt;" style="rounded=1;whiteSpace=wrap;html=1;fillColor=#dae8fc;strokeColor=#6c8ebf;" vertex="1" parent="1">
          <mxGeometry x="664" y="648" width="120" height="60" as="geometry" />
        </mxCell>
        <mxCell id="-ABRjQSA_zUm2fUTC_30-16" value="" style="edgeStyle=orthogonalEdgeStyle;rounded=0;orthogonalLoop=1;jettySize=auto;html=1;entryX=0.75;entryY=1;entryDx=0;entryDy=0;curved=1;exitX=0.25;exitY=1;exitDx=0;exitDy=0;" edge="1" source="-ABRjQSA_zUm2fUTC_30-18" target="-ABRjQSA_zUm2fUTC_30-18" parent="1">
          <mxGeometry relative="1" as="geometry">
            <mxPoint x="724" y="870" as="targetPoint" />
          </mxGeometry>
        </mxCell>
        <mxCell id="-ABRjQSA_zUm2fUTC_30-17" value="&lt;span style=&quot;font-size: 12px; text-wrap-mode: wrap; background-color: rgb(251, 251, 251);&quot;&gt;Backup&lt;/span&gt;" style="edgeLabel;html=1;align=center;verticalAlign=middle;resizable=0;points=[];" vertex="1" connectable="0" parent="-ABRjQSA_zUm2fUTC_30-16">
          <mxGeometry x="-0.0571" y="3" relative="1" as="geometry">
            <mxPoint y="12" as="offset" />
          </mxGeometry>
        </mxCell>
        <mxCell id="-ABRjQSA_zUm2fUTC_30-18" value="DB&lt;div&gt;Postgres&lt;/div&gt;&lt;div&gt;Replica&lt;/div&gt;" style="rounded=1;whiteSpace=wrap;html=1;" vertex="1" parent="1">
          <mxGeometry x="664" y="759" width="120" height="60" as="geometry" />
        </mxCell>
        <mxCell id="-ABRjQSA_zUm2fUTC_30-19" value="" style="endArrow=classic;startArrow=classic;html=1;rounded=0;entryX=0;entryY=0.75;entryDx=0;entryDy=0;exitX=1;exitY=0.25;exitDx=0;exitDy=0;" edge="1" source="-ABRjQSA_zUm2fUTC_30-3" target="-ABRjQSA_zUm2fUTC_30-6" parent="1">
          <mxGeometry width="50" height="50" relative="1" as="geometry">
            <mxPoint x="438" y="545" as="sourcePoint" />
            <mxPoint x="488" y="495" as="targetPoint" />
          </mxGeometry>
        </mxCell>
        <mxCell id="-ABRjQSA_zUm2fUTC_30-20" value="" style="endArrow=classic;startArrow=classic;html=1;rounded=0;entryX=0;entryY=0.25;entryDx=0;entryDy=0;exitX=1;exitY=0.5;exitDx=0;exitDy=0;" edge="1" source="-ABRjQSA_zUm2fUTC_30-9" target="-ABRjQSA_zUm2fUTC_30-15" parent="1">
          <mxGeometry width="50" height="50" relative="1" as="geometry">
            <mxPoint x="584" y="601" as="sourcePoint" />
            <mxPoint x="634" y="551" as="targetPoint" />
          </mxGeometry>
        </mxCell>
        <mxCell id="-ABRjQSA_zUm2fUTC_30-21" value="" style="endArrow=classic;startArrow=classic;html=1;rounded=0;entryX=0;entryY=0.75;entryDx=0;entryDy=0;exitX=1;exitY=0.5;exitDx=0;exitDy=0;" edge="1" source="-ABRjQSA_zUm2fUTC_30-11" target="-ABRjQSA_zUm2fUTC_30-15" parent="1">
          <mxGeometry width="50" height="50" relative="1" as="geometry">
            <mxPoint x="528" y="573" as="sourcePoint" />
            <mxPoint x="578" y="523" as="targetPoint" />
          </mxGeometry>
        </mxCell>
        <mxCell id="-ABRjQSA_zUm2fUTC_30-22" value="" style="endArrow=classic;startArrow=classic;html=1;rounded=0;entryX=0;entryY=0.5;entryDx=0;entryDy=0;exitX=1;exitY=0.5;exitDx=0;exitDy=0;" edge="1" source="-ABRjQSA_zUm2fUTC_30-3" target="-ABRjQSA_zUm2fUTC_30-9" parent="1">
          <mxGeometry width="50" height="50" relative="1" as="geometry">
            <mxPoint x="314" y="799" as="sourcePoint" />
            <mxPoint x="409" y="688" as="targetPoint" />
          </mxGeometry>
        </mxCell>
        <mxCell id="-ABRjQSA_zUm2fUTC_30-23" value="" style="endArrow=classic;startArrow=classic;html=1;rounded=0;entryX=0;entryY=0.25;entryDx=0;entryDy=0;exitX=1;exitY=0.75;exitDx=0;exitDy=0;" edge="1" source="-ABRjQSA_zUm2fUTC_30-3" target="-ABRjQSA_zUm2fUTC_30-11" parent="1">
          <mxGeometry width="50" height="50" relative="1" as="geometry">
            <mxPoint x="314" y="799" as="sourcePoint" />
            <mxPoint x="409" y="799" as="targetPoint" />
          </mxGeometry>
        </mxCell>
        <mxCell id="-ABRjQSA_zUm2fUTC_30-24" value="Пользователь" style="ellipse;whiteSpace=wrap;html=1;aspect=fixed;fillColor=#d5e8d4;strokeColor=#82b366;" vertex="1" parent="1">
          <mxGeometry x="25" y="744.5" width="89" height="89" as="geometry" />
        </mxCell>
        <mxCell id="-ABRjQSA_zUm2fUTC_30-25" value="Сервер логгирования&lt;div&gt;Elastic stack&lt;/div&gt;" style="rounded=1;whiteSpace=wrap;html=1;fillColor=#e1d5e7;strokeColor=#9673a6;" vertex="1" parent="1">
          <mxGeometry x="184" y="870" width="120" height="60" as="geometry" />
        </mxCell>
        <mxCell id="-ABRjQSA_zUm2fUTC_30-26" value="Сервер мониторинга&lt;div&gt;Prometheus+Grafana&lt;/div&gt;" style="rounded=1;whiteSpace=wrap;html=1;fillColor=#fff2cc;strokeColor=#d6b656;" vertex="1" parent="1">
          <mxGeometry x="184" y="648" width="120" height="60" as="geometry" />
        </mxCell>
        <mxCell id="-ABRjQSA_zUm2fUTC_30-27" value="" style="endArrow=classic;startArrow=classic;html=1;rounded=0;entryX=0.25;entryY=1;entryDx=0;entryDy=0;exitX=0.25;exitY=0;exitDx=0;exitDy=0;" edge="1" source="-ABRjQSA_zUm2fUTC_30-25" target="-ABRjQSA_zUm2fUTC_30-3" parent="1">
          <mxGeometry width="50" height="50" relative="1" as="geometry">
            <mxPoint x="314" y="784" as="sourcePoint" />
            <mxPoint x="409" y="688" as="targetPoint" />
          </mxGeometry>
        </mxCell>
        <mxCell id="-ABRjQSA_zUm2fUTC_30-28" value="" style="endArrow=classic;startArrow=classic;html=1;rounded=0;entryX=0.25;entryY=1;entryDx=0;entryDy=0;exitX=0.25;exitY=0;exitDx=0;exitDy=0;" edge="1" source="-ABRjQSA_zUm2fUTC_30-3" target="-ABRjQSA_zUm2fUTC_30-26" parent="1">
          <mxGeometry width="50" height="50" relative="1" as="geometry">
            <mxPoint x="224" y="880" as="sourcePoint" />
            <mxPoint x="224" y="829" as="targetPoint" />
          </mxGeometry>
        </mxCell>
        <mxCell id="-ABRjQSA_zUm2fUTC_30-29" style="edgeStyle=orthogonalEdgeStyle;rounded=0;orthogonalLoop=1;jettySize=auto;html=1;exitX=0;exitY=0.5;exitDx=0;exitDy=0;entryX=1.007;entryY=0.674;entryDx=0;entryDy=0;entryPerimeter=0;curved=1;dashed=1;strokeColor=#FF9933;" edge="1" source="-ABRjQSA_zUm2fUTC_30-11" target="-ABRjQSA_zUm2fUTC_30-26" parent="1">
          <mxGeometry relative="1" as="geometry">
            <Array as="points">
              <mxPoint x="339" y="900" />
              <mxPoint x="339" y="688" />
            </Array>
          </mxGeometry>
        </mxCell>
        <mxCell id="-ABRjQSA_zUm2fUTC_30-30" value="" style="endArrow=classic;startArrow=classic;html=1;rounded=0;entryX=1;entryY=0.5;entryDx=0;entryDy=0;exitX=0;exitY=0.5;exitDx=0;exitDy=0;" edge="1" source="-ABRjQSA_zUm2fUTC_30-3" target="-ABRjQSA_zUm2fUTC_30-24" parent="1">
          <mxGeometry width="50" height="50" relative="1" as="geometry">
            <mxPoint x="224" y="769" as="sourcePoint" />
            <mxPoint x="224" y="718" as="targetPoint" />
          </mxGeometry>
        </mxCell>
        <mxCell id="-ABRjQSA_zUm2fUTC_30-35" value="" style="endArrow=classic;html=1;rounded=0;strokeColor=#FFB570;dashed=1;" edge="1" parent="1">
          <mxGeometry width="50" height="50" relative="1" as="geometry">
            <mxPoint x="673" y="960" as="sourcePoint" />
            <mxPoint x="723" y="910" as="targetPoint" />
          </mxGeometry>
        </mxCell>
        <mxCell id="-ABRjQSA_zUm2fUTC_30-36" value="&lt;span lang=&quot;EN-US&quot; style=&quot;font-size:11.0pt;line-height:&lt;br/&gt;107%;font-family:&amp;quot;Calibri&amp;quot;,sans-serif;mso-ascii-theme-font:minor-latin;&lt;br/&gt;mso-fareast-font-family:Calibri;mso-fareast-theme-font:minor-latin;mso-hansi-theme-font:&lt;br/&gt;minor-latin;mso-bidi-font-family:&amp;quot;Times New Roman&amp;quot;;mso-bidi-theme-font:minor-bidi;&lt;br/&gt;mso-ansi-language:EN-US;mso-fareast-language:EN-US;mso-bidi-language:AR-SA&quot;&gt;prometheus-node-exporter&lt;/span&gt;" style="edgeLabel;html=1;align=center;verticalAlign=middle;resizable=0;points=[];fontColor=#FFB570;" vertex="1" connectable="0" parent="-ABRjQSA_zUm2fUTC_30-35">
          <mxGeometry x="0.16" y="1" relative="1" as="geometry">
            <mxPoint x="-2" y="6" as="offset" />
          </mxGeometry>
        </mxCell>
        <mxCell id="-ABRjQSA_zUm2fUTC_30-37" value="" style="endArrow=classic;html=1;rounded=0;strokeColor=#B266FF;dashed=1;dashPattern=1 2;" edge="1" parent="1">
          <mxGeometry width="50" height="50" relative="1" as="geometry">
            <mxPoint x="672" y="1018" as="sourcePoint" />
            <mxPoint x="722" y="968" as="targetPoint" />
          </mxGeometry>
        </mxCell>
        <mxCell id="-ABRjQSA_zUm2fUTC_30-38" value="&lt;span style=&quot;font-size: 12px; text-wrap-mode: wrap; background-color: rgb(251, 251, 251);&quot;&gt;filebeat&lt;/span&gt;" style="edgeLabel;html=1;align=center;verticalAlign=middle;resizable=0;points=[];fontColor=#9933FF;" vertex="1" connectable="0" parent="-ABRjQSA_zUm2fUTC_30-37">
          <mxGeometry x="0.16" y="1" relative="1" as="geometry">
            <mxPoint x="-4" y="9" as="offset" />
          </mxGeometry>
        </mxCell>
        <mxCell id="-ABRjQSA_zUm2fUTC_30-39" value="" style="endArrow=classic;html=1;rounded=0;strokeColor=#FF00FF;dashed=1;dashPattern=1 2;" edge="1" parent="1">
          <mxGeometry width="50" height="50" relative="1" as="geometry">
            <mxPoint x="676" y="1074" as="sourcePoint" />
            <mxPoint x="726" y="1024" as="targetPoint" />
          </mxGeometry>
        </mxCell>
        <mxCell id="-ABRjQSA_zUm2fUTC_30-40" value="&lt;span style=&quot;font-size: 12px; text-wrap-mode: wrap; background-color: rgb(251, 251, 251);&quot;&gt;heartbeat&lt;/span&gt;" style="edgeLabel;html=1;align=center;verticalAlign=middle;resizable=0;points=[];fontColor=#FF00FF;" vertex="1" connectable="0" parent="-ABRjQSA_zUm2fUTC_30-39">
          <mxGeometry x="0.16" y="1" relative="1" as="geometry">
            <mxPoint x="-4" y="9" as="offset" />
          </mxGeometry>
        </mxCell>
      </root>
    </mxGraphModel>
  </diagram>
</mxfile>
